<?xml version="1.0" encoding="utf-8"?>
<!-- Generator: Adobe Illustrator 25.4.1, SVG Export Plug-In . SVG Version: 6.00 Build 0)  -->
<svg version="1.1" id="Layer_1" xmlns="http://www.w3.org/2000/svg" xmlns:xlink="http://www.w3.org/1999/xlink" x="0px" y="0px"
	 viewBox="0 0 32 32" style="enable-background:new 0 0 32 32;" xml:space="preserve">
<style type="text/css">
	.st0{fill:#DD4A6A;}
	.st1{fill:#FFFFFF;}
</style>
<path class="st0" d="M16,32L16,32C7.2,32,0,24.8,0,16v0C0,7.2,7.2,0,16,0h0c8.8,0,16,7.2,16,16v0C32,24.8,24.8,32,16,32z"/>
<g>
	<g>
		<path class="st1" d="M10.2,22.9c-0.9,0-1.8-0.2-2.5-0.5C7,22.1,6.4,21.6,6,21c-0.4-0.6-0.7-1.3-0.7-2.1h2.8c0,0.5,0.3,1,0.7,1.3
			c0.4,0.3,0.9,0.5,1.5,0.5c0.5,0,0.9-0.1,1.2-0.3c0.4-0.2,0.6-0.5,0.8-0.8s0.3-0.8,0.3-1.3c0-0.5-0.1-0.9-0.3-1.3
			c-0.2-0.4-0.5-0.7-0.8-0.9c-0.4-0.2-0.8-0.3-1.2-0.3c-0.4,0-0.8,0.1-1.2,0.2c-0.4,0.2-0.7,0.4-0.9,0.7l-2.6-0.5l0.6-7.2h8.4v2.4
			h-6l-0.4,3.4h0.1c0.2-0.3,0.6-0.6,1.1-0.8c0.5-0.2,1-0.3,1.6-0.3c0.8,0,1.6,0.2,2.2,0.6c0.6,0.4,1.2,0.9,1.5,1.6
			c0.4,0.7,0.6,1.5,0.6,2.3c0,0.9-0.2,1.7-0.6,2.5c-0.4,0.7-1,1.3-1.8,1.7C12.2,22.7,11.3,22.9,10.2,22.9z"/>
	</g>
	<g>
		<path class="st1" d="M17.5,22.8V9.1h9.2v2.4h-6.3v3.3h5.9v2.4h-5.9v3.3h6.4v2.4H17.5z"/>
	</g>
</g>
</svg>
